User Type,Username,Date,Text
,moonflux,2012-08-25T20:09Z,"Specs:

General 
Unique ID : 190045645697744916305161844483955286454 (0x8EF975C193304EF68103A70331A6E1B6) 
Complete name : C:A.Geisha.1953.BDRip.X264-BMDruCHinYaNA.Geisha.1953.BDRip.X264-BMDruCHinYaN.mkv 
Format : Matroska 
Format version : Version 2 
File size : 2.05 GiB 
Duration : 1h 24mn 
Overall bit rate : 3 468 Kbps 
Movie name : 顶好精品论坛 http://bmdruchinyan.com 
Encoded date : UTC 2012-05-11 03:13:16 
Writing application : mkvmerge v4.3.0 ('Escape from the Island') 編譯於 Sep 5 2010 10:30:51 
Writing library : libebml v1.0.0 + libmatroska v1.0.0 

Video 
ID : 1 
Format : AVC 
Format/Info : Advanced Video Codec 
Format profile : High@L5.0 
Format settings, CABAC : Yes 
Format settings, ReFrames : 16 frames 
Muxing mode : Header stripping 
Codec ID : V_MPEG4/ISO/AVC 
Duration : 1h 24mn 
Bit rate : 2 832 Kbps 
Width : 912 pixels 
Height : 680 pixels 
Display aspect ratio : 4:3 
Frame rate : 23.976 fps 
Color space : YUV 
Chroma subsampling : 4:2:0 
Bit depth : 8 bits 
Scan type : Progressive 
Bits/(Pixel*Frame) : 0.190 
Stream size : 1.75 GiB (85%) 
Title : http://www.bmdruchinyan.com 
Writing library : x264 core 120 r2164 da19765 
Encoding settings : cabac=1 / ref=16 / deblock=1:-2:-1 / analyse=0x3:0x113 / me=umh / subme=11 / psy=1 / psy_rd=1.00:0.00 / mixed_ref=1 / me_range=32 / chroma_me=1 / trellis=2 / 8x8dct=1 / cqm=0 / deadzone=21,11 / fast_pskip=1 / chroma_qp_offset=-2 / threads=12 / sliced_threads=0 / nr=0 / decimate=0 / interlaced=0 / bluray_compat=0 / constrained_intra=0 / bframes=16 / b_pyramid=2 / b_adapt=1 / b_bias=0 / direct=1 / weightb=0 / open_gop=0 / weightp=2 / keyint=240 / keyint_min=23 / scenecut=40 / intra_refresh=0 / rc_lookahead=40 / rc=2pass / mbtree=1 / bitrate=2832 / ratetol=1.0 / qcomp=0.60 / qpmin=10 / qpmax=51 / qpstep=4 / cplxblur=20.0 / qblur=0.5 / ip_ratio=1.40 / aq=1:1.00 
Default : Yes 
Forced : No 

Audio 
ID : 2 
Format : AC-3 
Format/Info : Audio Coding 3 
Mode extension : CM (complete main) 
Muxing mode : Header stripping 
Codec ID : A_AC3 
Duration : 1h 24mn 
Bit rate mode : Constant 
Bit rate : 448 Kbps 
Channel(s) : 2 channels 
Channel positions : Front: L R 
Sampling rate : 48.0 KHz 
Bit depth : 16 bits 
Compression mode : Lossy 
Stream size : 272 MiB (13%) 
Title : http://www.bmdruchinyan.com 
Language : Japanese 
Default : Yes 
Forced : No "
